<svg xmlns="http://www.w3.org/2000/svg" viewBox="0 0 64 64" fill="none">
  <g fill="#EF4444">
    <rect x="10" y="16" width="7" height="23" rx="3.5" transform="rotate(-16 17 39)"/>
    <rect x="20" y="7" width="8" height="31" rx="4" transform="rotate(-14 28 38)"/>
    <rect x="34" y="7" width="8" height="31" rx="4" transform="rotate(14 34 38)"/>
    <rect x="44" y="15" width="7" height="24" rx="3.5" transform="rotate(16 44 39)"/>
    <path d="M14 39c0-2 2-3 4-3h25c3 0 5 2 5 5v2l7-7c2-2 5-2 7 0s1 5-1 7L48 56c-3 3-6 5-10 5H28c-8 0-14-7-14-15v-7Z"/>
  </g>
</svg>
